<svg width="157" height="161" viewBox="0 0 157 161" fill="none" xmlns="http://www.w3.org/2000/svg">
<mask id="mask0_1_1450" style="mask-type:luminance" maskUnits="userSpaceOnUse" x="0" y="0" width="157" height="161">
<path d="M157 0H0V161H157V0Z" fill="white"/>
</mask>
<g mask="url(#mask0_1_1450)">
<path d="M52.7611 161C52.2327 160.924 51.7043 160.848 51.176 160.773C50.2702 160.545 48.9115 160.242 47.1755 159.863C44.2317 159.182 40.0803 158.197 34.9476 156.909C25.6635 154.636 16.6058 152.287 15.9264 152.135C14.7187 151.832 12.6053 149.711 11.0202 147.741C10.7183 147.362 10.3409 146.908 9.96345 146.302C10.0389 147.211 10.0389 148.196 9.96345 149.105C9.96345 149.332 9.73701 149.484 9.43509 149.484C9.20865 149.484 9.05768 149.256 9.05768 148.953C9.13317 147.514 9.13317 146.074 8.90672 144.711C8.30288 143.574 7.84999 142.438 7.92547 141.528C8.00095 141.15 8.00095 140.771 8.37836 140.619C8.52932 140.544 8.75576 140.544 8.90672 140.695C9.05768 140.771 9.35961 141.074 9.81249 144.408C10.4163 145.392 11.0202 146.377 11.775 147.211C13.662 149.56 15.4736 151.151 16.2284 151.302C20.5308 152.439 44.0808 158.348 51.025 159.863C50.4211 159.409 49.8928 158.954 49.5154 158.348C48.9115 158.651 48.2322 158.803 47.6284 158.803C45.8168 158.651 38.3442 156.606 32.2303 154.863C29.1356 153.954 18.8702 150.923 15.9264 149.484C11.3221 147.211 9.43509 142.741 9.28413 140.392C9.28413 138.801 9.88797 137.361 11.0202 136.225C6.56682 134.028 2.79278 132.285 2.64182 132.209C2.41538 132.134 2.3399 131.831 2.41538 131.603C2.49086 131.376 2.7173 131.3 2.94374 131.376C3.01922 131.452 7.62355 133.043 13.1336 134.937C14.2659 134.861 16.6812 135.088 22.1159 136.073C22.4933 136.149 22.8707 136.225 23.2481 136.301C21.5875 135.77 19.9269 135.088 18.2663 134.331C16.9832 133.725 14.0394 133.119 11.3976 132.588C7.0197 131.679 5.20817 131.3 4.83076 130.543C4.75528 130.391 4.75528 130.164 4.83076 129.936C5.0572 129.558 5.51009 129.33 9.43509 129.785C11.775 130.088 14.9452 130.543 17.9644 130.997C22.4178 131.679 28.3808 132.588 29.513 132.437C29.6639 131.982 29.9659 131.528 30.2678 131.149C30.0413 131.149 29.8904 131.149 29.6639 131.149C26.2673 130.77 19.0966 128.648 12.7562 126.83C10.7183 126.224 8.6048 125.618 6.79326 125.088C6.2649 127.436 5.0572 129.482 2.7173 130.012C1.50961 130.315 0.528358 129.785 0.226435 128.648C-0.30193 126.906 0.679319 123.648 1.88701 123.193C2.3399 123.042 3.54759 123.269 6.11394 123.951C6.18942 123.118 6.2649 122.36 6.18942 121.527C6.18942 121.299 6.11394 121.223 6.11394 121.148C5.96297 121.072 5.0572 121.527 4.6798 121.754C3.69855 122.284 2.64182 122.815 1.88701 122.436C1.35865 122.133 1.05672 121.527 1.05672 120.92C0.679319 117.663 2.26442 113.95 3.54759 113.041C3.84951 112.814 4.22692 112.738 4.52884 112.889C4.83076 113.041 8.2274 114.026 11.8505 115.162C15.851 116.375 20.9082 117.89 24.8332 119.102C32.0793 121.375 32.0793 121.602 32.0793 121.981C32.0793 122.36 32.0793 122.663 32.0038 123.042C32.4567 122.89 32.9851 122.739 33.5135 122.511C33.5889 122.208 33.5889 121.981 33.6644 121.678C33.5135 121.527 33.287 121.375 33.0606 121.299C32.3058 120.92 28.6827 119.784 24.4558 118.496C20.3798 117.208 15.7755 115.844 12.1524 114.556C6.03845 112.435 5.58557 111.753 5.66105 111.147C5.66105 110.995 5.66105 110.844 5.66105 110.692C5.81201 108.571 6.11393 104.025 8.2274 102.964C8.6048 102.737 9.58605 102.207 24.5312 105.464C15.851 103.343 6.18942 100.691 4.52884 99.5548C3.47211 98.8729 2.94374 98.0395 2.86826 97.0546C2.7173 95.4635 4.15143 94.1755 4.22692 94.0997C4.3024 94.024 4.45336 93.9482 4.60432 94.024H4.6798C4.6798 93.8724 4.75528 93.7967 4.75528 93.6452C4.98172 92.6602 5.66105 91.8268 6.56682 91.448C7.77451 90.9934 21.3611 89.3266 24.0784 88.9477C31.8529 87.9628 41.2125 86.8263 43.4014 86.7506C47.6284 86.5233 80.538 96.0696 81.9721 96.5242C82.1985 96.6 82.3495 96.8273 82.274 97.0546C82.1985 97.2061 82.0476 97.3576 81.8966 97.3576C69.0649 98.4941 44.5336 100.767 43.0995 101.222C43.024 101.222 42.9486 101.297 42.7976 101.297C51.025 101.525 82.576 98.3426 82.8779 98.2668C83.1043 98.2668 83.3308 98.4183 83.3308 98.6456C83.3308 98.7214 83.3308 98.7971 83.3308 98.7971L82.6514 100.919C82.576 101.222 82.576 101.525 82.7269 101.752C83.2553 102.585 84.9159 103.04 85.5197 103.116C85.7461 103.192 85.8971 103.419 85.8971 103.646C85.8971 103.798 85.7461 103.949 85.5197 104.025C85.3687 104.025 79.4812 104.934 72.1596 105.995C78.1981 105.313 82.8024 104.934 84.0101 105.086C84.6139 105.161 84.9913 105.161 85.2933 105.237C85.6707 105.313 86.0481 105.313 86.0481 105.768C86.0481 105.995 85.8971 106.222 85.5197 106.222C85.4442 106.222 85.2933 106.298 85.0668 106.298C83.7082 106.449 82.3495 106.828 81.0663 107.359C80.4625 107.662 80.387 108.04 80.387 108.268C80.4625 109.859 83.7082 112.435 85.5197 112.965C85.7461 113.041 85.8971 113.192 85.8971 113.344C85.8971 113.496 85.8971 113.723 85.7461 113.799C85.5952 113.874 85.3687 114.102 82.8779 114.632L85.7461 114.253C86.199 113.192 87.0293 112.359 88.0106 111.904C90.9543 110.238 95.4077 109.177 99.7101 108.647C99.7856 107.207 100.087 105.464 100.389 103.419C100.616 101.904 100.842 100.54 100.918 99.4033C101.069 97.9637 100.918 97.5849 100.842 97.5091C100.465 97.4334 99.8611 97.4334 99.1062 97.3576C95.6341 97.0546 89.2183 96.4484 86.9538 95.0089C84.6139 93.4936 84.8404 92.0541 84.9913 91.6753C85.2178 91.0692 85.7461 90.6903 86.4255 90.7661C86.5764 90.7661 86.8029 90.8419 87.4067 90.9934C87.7086 91.0692 88.0861 91.1449 88.388 91.2207C88.7654 90.2357 89.2937 89.3266 89.8221 88.4932C88.5389 88.5689 86.7274 87.887 85.8216 87.584C83.2553 86.599 80.8399 85.1595 78.651 83.4169C75.1034 80.5379 71.9332 77.2042 69.3668 73.4917C65.4418 67.5821 62.8755 60.839 61.8942 53.7929C60.611 44.7012 63.8567 35.6852 66.725 29.6997C70.1971 22.6536 74.4995 17.2743 76.9904 15.6075C77.2168 15.456 77.5187 15.3044 77.7452 15.0772C81.1418 12.6527 84.7649 10.4555 88.5389 8.71292C93.9735 6.28845 99.3327 5.15198 104.541 5.37927C110.353 5.60657 115.259 6.13692 119.713 7.42492C119.713 7.0461 120.241 6.13692 121.222 4.84892L118.278 3.63669C118.052 3.56092 117.976 3.25786 118.052 3.03057C118.052 2.9548 118.127 2.9548 118.127 2.87904L120.769 0.227274C120.845 0.151509 120.996 0.0757446 121.071 0.0757446C123.562 0.303039 125.977 0.833392 128.317 1.74257C133.827 3.78822 138.734 7.34916 142.508 11.9708C146.886 17.1986 150.358 23.184 152.773 29.5482C155.113 35.9124 156.472 42.504 156.849 49.247C157.453 56.8993 155.868 64.5515 152.245 71.2946C148.773 77.7346 143.564 83.4927 136.696 88.4174C130.959 92.5087 125.525 95.2362 120.618 96.5242C116.089 97.7365 113.146 97.2819 111.787 96.9788C110.73 96.6757 110.202 95.8423 110.428 94.6301C110.428 94.4028 110.504 94.1755 110.579 93.9482C110.126 94.024 109.598 94.024 109.07 94.0997C109.447 94.4786 109.749 95.0089 109.825 95.5393C109.9 95.9939 109.9 96.4484 109.825 96.903C110.428 97.1303 110.579 97.2819 110.655 97.3576C110.881 97.7364 110.881 98.5698 110.881 101.07C110.806 103.646 110.957 106.222 111.183 108.798H111.334C112.391 109.025 113.599 109.253 114.882 109.48C119.486 110.313 122.581 110.995 123.185 112.435C123.336 112.889 123.26 113.42 122.958 113.799C122.052 115.087 119.788 115.92 117.222 115.768C114.504 115.617 112.24 114.48 111.334 112.662C110.881 111.677 110.579 110.616 110.428 109.556C109.145 109.328 107.787 109.253 106.503 109.253C106.277 109.707 105.975 110.086 105.749 110.541C105.371 111.147 104.767 111.526 104.088 111.677C103.56 111.753 102.88 111.677 102.125 111.677C102.05 112.056 101.748 112.435 101.446 112.662C101.144 112.814 100.842 112.814 100.616 112.586C100.314 112.359 100.087 111.98 99.9365 111.601C97.4457 111.601 94.6529 111.829 93.2942 113.192C92.7659 113.723 92.4639 114.556 92.4639 115.314C92.4639 116.375 93.5961 117.511 95.8606 118.496C97.8986 119.405 100.087 120.087 102.276 120.542C102.956 120.39 103.635 120.239 104.39 120.163C106.126 119.86 110.277 119.405 111.787 120.693C112.315 121.148 112.24 121.527 112.089 121.754C111.938 121.981 111.636 122.587 108.088 122.36C106.126 122.208 104.163 121.905 102.276 121.527C100.238 121.981 98.276 122.587 96.3889 123.496C96.6909 123.572 96.9928 123.648 97.2947 123.724C102.201 124.709 107.183 125.088 112.164 124.86C117.976 124.633 122.807 123.496 125.977 121.527C127.864 120.39 128.77 119.254 128.695 118.041C128.619 115.617 124.845 113.723 124.845 113.647C124.619 113.571 124.543 113.268 124.619 113.041C124.694 112.889 124.845 112.814 125.072 112.814C125.147 112.814 130.884 113.495 136.696 114.329C148.697 115.996 149.678 116.753 149.98 116.981C150.207 117.132 150.282 117.359 150.207 117.587C150.207 117.663 150.207 117.738 150.131 117.738C150.358 117.89 150.358 118.117 150.282 118.344C150.131 118.572 149.98 118.723 149.754 118.875C148.999 119.557 147.791 120.693 148.32 122.057C148.773 123.193 149.829 124.027 150.962 124.33C151.188 124.406 151.339 124.633 151.263 124.86C151.263 125.012 151.112 125.163 150.962 125.163C150.886 125.163 141.602 128.648 132.242 131.755C126.732 133.573 122.279 134.937 118.958 135.846C113.297 137.361 112.089 137.058 111.712 136.604C111.334 136.149 110.957 135.77 110.504 135.467C110.655 135.77 110.806 136.149 111.032 136.452C111.183 136.68 111.108 136.907 110.881 137.058C110.806 137.134 110.655 137.134 110.579 137.134C110.504 137.134 106.352 136.452 102.276 135.619C99.8611 135.164 97.8986 134.71 96.5399 134.331C95.9361 134.179 95.4832 134.028 95.1058 133.876C95.4077 135.164 95.2567 136.755 94.049 137.589C93.2187 138.195 90.7279 139.18 87.8596 140.165C86.2745 141.453 81.0663 144.559 65.0644 153.424C60.611 155.924 56.6106 158.121 54.6481 159.257L54.5726 159.333C53.2139 160.167 53.2139 160.167 53.063 160.167C52.912 160.091 52.7611 160.015 52.7611 159.788C52.6856 159.485 52.8365 159.409 53.2139 159.182C53.4404 159.03 53.8178 158.803 54.2707 158.5C56.5351 156.984 61.6678 153.575 66.876 150.09C71.1784 147.211 74.1976 145.089 76.3111 143.574C75.2543 143.726 69.9707 146.832 64.838 149.863C58.3466 153.727 53.063 156.833 49.9683 158.197C50.5721 158.954 51.3269 159.56 52.1572 160.015C52.3836 160.167 52.6101 160.318 52.8365 160.47C52.9875 160.621 53.063 160.848 52.9875 161.076C53.2139 160.924 52.9875 161 52.7611 161ZM11.6995 136.528C10.7937 137.437 9.96345 138.725 10.0389 140.24C10.1899 142.513 12.1524 146.605 16.2284 148.575C20.8327 150.848 44.6846 157.515 47.6284 157.818C48.0812 157.818 48.6096 157.666 48.987 157.515C48.6096 156.757 48.4586 155.999 48.3832 155.166C48.3832 154.408 48.1567 153.727 47.7793 153.045C47.5529 152.666 47.4774 152.287 47.5529 151.832C47.7793 151.226 48.6096 150.696 51.5534 149.332C56.2332 147.135 68.0836 142.816 74.3485 140.771C69.5933 141.301 64.1586 141.907 58.724 142.589C50.7986 143.574 44.3827 144.408 39.7029 145.089C33.8909 145.999 31.7019 146.529 30.8716 146.832C33.2115 147.665 37.212 148.575 39.9293 149.181C40.6841 149.332 41.3635 149.484 41.8163 149.635C42.0428 149.711 42.2692 149.711 42.3447 149.787C42.4957 149.863 42.8731 149.938 42.8731 150.393C42.7976 150.848 42.4202 150.772 41.9673 150.772C41.6654 150.772 41.2125 150.696 40.5332 150.62C34.0418 149.863 13.813 142.968 11.3976 141.68C11.2466 141.604 10.7937 141.377 10.9447 140.998C11.0957 140.544 11.4731 140.619 13.1336 140.847C14.1904 140.998 15.549 141.301 17.0586 141.604C19.2476 142.059 22.2668 142.665 23.9274 142.816C21.7385 141.453 16.4548 138.877 11.6995 136.528ZM79.5567 140.24C79.1793 140.316 78.8774 140.468 78.5 140.468C76.5375 140.771 58.1202 147.287 51.9308 150.166C50.0437 151.075 48.5341 151.757 48.3832 152.135C48.3832 152.211 48.4586 152.439 48.6096 152.666C48.987 153.424 49.2135 154.257 49.2889 155.09C49.2889 155.772 49.5154 156.53 49.8173 157.136C53.2894 155.621 59.7053 151.757 64.7625 148.802C71.3293 144.938 75.4053 142.513 76.613 142.362C77.2923 142.286 77.8961 142.135 78.5 141.983C79.7832 140.998 80.6135 140.392 81.0663 140.013L79.5567 140.24ZM78.8019 142.816C76.3111 144.635 72.537 147.287 67.4043 150.696C66.4986 151.302 65.5928 151.908 64.7625 152.514L64.9889 152.363C69.8952 149.635 75.5562 146.529 80.0096 143.953C82.274 142.665 83.9346 141.68 85.0668 140.922C82.8024 141.68 80.4625 142.362 78.8019 142.816ZM14.5678 141.907C18.0399 143.195 24.0784 145.241 29.6639 146.908V146.832C29.7394 146.377 30.1923 146.074 32.4567 145.544C33.8909 145.241 36.0043 144.862 38.7216 144.408C43.4014 143.65 49.8173 142.816 57.8937 141.831C65.5928 140.922 73.5183 140.013 79.4058 139.407C79.8586 139.255 80.3115 139.104 80.7644 138.877C81.8966 138.422 82.5005 138.195 82.8779 138.649C82.9534 138.725 83.0288 138.877 82.9534 139.028C85.7461 138.725 87.6332 138.574 88.1615 138.498C88.388 138.422 88.6899 138.574 88.8409 138.801C91.2562 137.892 93.2187 137.134 93.9735 136.604C94.4264 136.301 94.7284 135.77 94.7284 135.24C94.8038 134.558 94.7284 133.876 94.4264 133.194C94.049 132.967 93.9735 132.816 93.9735 132.588C93.9735 132.134 94.2 131.982 94.351 131.982C94.8038 131.906 95.0303 132.361 95.1058 132.588C95.7851 132.891 97.7476 133.497 103.258 134.558C106.05 135.088 108.843 135.619 110.277 135.846C110.051 135.392 109.9 134.937 109.749 134.482C109.221 134.407 108.843 134.407 108.466 134.331C105.522 133.8 102.654 133.043 99.8611 132.134C94.9548 130.467 92.313 128.573 92.0865 126.603C91.9356 125.466 92.6904 124.406 94.2755 123.345C90.275 121.905 87.0293 119.481 86.0481 116.981C85.8216 117.359 85.6707 117.814 85.6707 118.269C85.6707 118.42 85.8216 118.496 85.9726 118.572C86.199 118.647 86.2745 118.875 86.2745 119.102C86.2745 119.481 85.8971 119.632 85.0668 119.86C84.463 120.011 83.6327 120.239 82.576 120.466C76.8394 121.678 64.9889 123.648 55.0255 125.012C49.4399 125.769 44.7601 126.376 41.3635 126.603C39.4764 126.754 37.9668 126.83 36.9856 126.83C35.4005 126.83 34.9476 126.603 34.7966 126.3C34.4192 125.542 34.1928 124.709 34.1928 123.799C34.1928 123.648 34.1928 123.421 34.1928 123.269C34.1173 124.33 34.0418 125.466 34.1173 126.603C34.1173 126.906 34.1173 127.209 34.1173 127.512C34.0418 127.739 33.8154 128.042 32.8341 129.179C32.5322 129.482 32.2303 129.861 31.9284 130.24C40.6086 129.861 65.3663 125.921 79.4058 123.648C82.8024 123.118 85.4442 122.663 87.1803 122.436C87.5577 122.36 87.8596 122.36 88.0106 122.284H88.237C88.4635 122.208 88.6899 122.36 88.7654 122.587C88.7654 122.587 88.7654 122.587 88.7654 122.663C88.7654 122.739 88.8409 123.118 88.3125 123.193H88.086L87.2558 123.345C86.5764 123.496 85.5197 123.648 84.161 123.875C77.8207 124.936 65.9702 126.83 55.1764 128.648C38.6461 131.452 34.3437 132.437 33.6644 132.816C32.9096 133.119 32.3812 133.649 32.0793 134.407C31.6264 135.619 32.3812 137.21 32.9096 138.346L32.9851 138.498C33.287 138.574 34.3437 138.574 38.6461 137.892C41.5899 137.361 45.7413 136.528 50.874 135.467C60.3091 133.422 71.4048 130.921 79.4058 129.027C85.2178 127.664 89.0673 126.83 89.6712 126.754C90.0486 126.679 90.426 126.83 90.6524 127.133C91.1808 127.739 91.3317 129.179 91.1053 131.528C91.0298 133.043 90.7279 134.558 90.3505 135.998C90.275 136.225 90.0486 136.376 89.8221 136.301C89.5957 136.225 89.4447 135.998 89.5202 135.77C89.8221 134.331 90.124 132.891 90.275 131.452C90.275 131.224 90.275 130.997 90.275 130.846C89.9731 130.77 89.1428 130.694 86.35 131.073C84.161 131.376 81.2173 131.831 77.3678 132.512C70.2726 133.8 61.2149 135.619 53.2139 137.286C41.9673 139.559 32.9851 141.377 31.0981 141.377C31.0226 141.377 31.0226 141.377 30.9471 141.377C28.6827 141.225 19.9269 138.422 12.6808 135.922C12.5298 135.922 12.4543 135.922 12.3034 135.998L12.2279 136.073C17.6625 138.725 23.701 141.68 25.1351 142.589C25.2861 142.665 25.7389 142.968 25.588 143.423C25.3615 144.029 24.5312 144.029 16.8322 142.513C16.1529 142.21 15.3226 142.059 14.5678 141.907ZM82.425 139.937L82.3495 140.013C81.8966 140.544 81.3683 140.998 80.7644 141.377C82.576 140.847 84.6894 140.165 86.7274 139.483C85.6707 139.559 84.2365 139.71 82.425 139.937ZM16.3793 135.998C22.7952 138.119 29.362 140.24 31.249 140.316C32.6832 140.392 42.6466 138.346 53.2139 136.225C61.2904 134.558 70.499 132.74 77.6697 131.452C81.5947 130.77 84.5385 130.24 86.6519 130.012C88.9163 129.709 90.0486 129.709 90.5769 129.785C90.5769 128.724 90.5014 127.891 90.1995 127.588C90.124 127.512 90.0485 127.512 89.9731 127.512C89.3692 127.588 85.3687 128.497 79.7832 129.785C71.4803 131.679 60.0827 134.331 50.4211 136.376C45.1375 137.513 40.9861 138.271 38.1178 138.801C36.4572 139.104 35.174 139.255 34.3437 139.331C33.0606 139.407 32.6077 139.331 32.3812 138.952L32.2303 138.725C31.6264 137.437 30.7961 135.695 31.3245 134.104C31.7019 133.194 32.4567 132.437 33.3625 132.058C34.0418 131.755 36.9856 131.073 41.3635 130.315C37.0611 130.846 33.438 131.224 31.249 131.224C30.7961 131.679 30.4942 132.285 30.2678 132.891C30.1923 133.422 29.4375 133.422 28.7582 133.422C28.1543 133.422 27.2486 133.346 26.0409 133.194C23.7764 132.891 20.7572 132.437 17.8135 131.982C14.9452 131.527 12.0014 131.073 9.66153 130.77C8.45384 130.618 7.24615 130.467 5.96297 130.467C7.77451 130.997 9.58605 131.452 11.4731 131.755C14.2659 132.285 17.2096 132.891 18.5683 133.573C21.4365 135.013 30.6452 137.892 30.7207 137.892C30.9471 137.967 31.0981 138.195 31.0226 138.422C30.9471 138.649 30.7207 138.725 30.4942 138.725C30.4187 138.725 26.2673 137.74 21.9649 136.983C19.474 136.452 17.6625 136.149 16.3793 135.998ZM112.768 135.77C112.919 135.846 113.825 136.149 119.486 134.634C122.807 133.725 127.185 132.361 132.62 130.543C140.017 128.042 147.263 125.466 149.905 124.481C148.924 123.951 148.169 123.118 147.716 122.133C147.187 120.617 148.018 119.405 148.773 118.572C147.263 119.254 144.395 120.39 138.734 122.208C132.469 124.254 124.694 126.451 119.109 128.118C116.467 128.876 114.202 129.558 112.844 129.936C111.938 130.164 111.108 130.543 110.353 130.921C110.126 131.831 110.126 132.74 110.428 133.573L110.504 133.649C111.485 133.725 112.542 133.8 113.599 133.8C114.127 133.8 114.58 133.8 114.957 133.8C114.58 133.649 114.202 133.422 113.825 133.27C113.372 133.043 112.995 132.816 112.466 132.588C111.938 132.361 111.485 132.209 111.561 131.755C111.561 131.527 111.712 131.376 111.938 131.3C112.542 131.073 114.882 131.603 114.957 131.679C116.089 131.982 117.599 132.361 118.052 132.967C118.127 133.043 118.127 133.119 118.127 133.119C119.939 132.891 122.656 132.361 127.185 131.224C127.412 131.149 127.638 131.3 127.713 131.528C127.789 131.755 127.638 131.982 127.412 132.058C122.505 133.27 119.637 133.876 117.825 134.028C117.373 134.331 116.316 134.71 113.599 134.71C112.995 134.71 112.315 134.71 111.636 134.634C112.013 134.937 112.391 135.316 112.768 135.77ZM9.96345 134.785L11.4731 135.543C11.5486 135.467 11.624 135.467 11.624 135.391C11.0957 135.164 10.5673 134.937 9.96345 134.785ZM95.3322 123.724C93.6716 124.709 92.7659 125.618 92.9168 126.451C93.3697 130.012 105.296 132.891 108.541 133.422C108.692 133.422 108.843 133.497 108.994 133.497C108.541 133.043 108.315 132.437 108.39 131.831C108.541 131.224 108.994 130.694 109.598 130.391C109.749 129.936 109.975 129.558 110.277 129.179C110.655 128.724 111.787 127.891 117.524 126.072C120.92 124.936 125.525 123.572 130.884 122.133C135.186 120.92 139.941 119.708 143.942 118.799C145.678 118.344 147.187 118.041 148.244 117.814L148.697 117.738C148.924 117.663 149.15 117.511 149.301 117.359C147.112 116.375 135.563 114.784 126.959 113.723C128.166 114.632 129.6 116.072 129.676 117.814C129.751 119.405 128.695 120.845 126.506 122.133C119.411 126.375 106.352 126.224 97.2192 124.406C96.6154 124.103 95.9361 123.951 95.3322 123.724ZM113.9 132.285L114.127 132.437C114.882 132.967 115.863 133.194 116.769 133.119C116.089 132.816 115.41 132.588 114.731 132.437C114.429 132.361 114.202 132.361 113.9 132.285ZM109.296 131.831C109.296 131.906 109.296 131.906 109.221 131.982C109.221 132.134 109.221 132.209 109.296 132.361C109.296 132.209 109.296 131.982 109.296 131.831ZM6.86874 124.103C8.45384 124.557 10.4163 125.163 12.9072 125.845C19.1721 127.739 26.3428 129.861 29.5885 130.164C29.9659 130.164 30.3433 130.24 30.7207 130.24C31.0981 129.709 31.6264 129.179 32.0793 128.573C32.5322 128.042 33.0606 127.436 33.1361 127.209C33.1361 127.133 33.1361 126.83 33.1361 126.527C33.0606 125.542 33.0606 124.481 33.1361 123.496C32.5322 123.648 32.0793 123.875 31.6264 124.027C31.551 124.557 31.4755 125.088 31.3245 125.542C30.7207 128.573 30.2678 128.952 29.8149 129.027C29.513 129.103 29.1356 129.027 28.9091 128.27C28.8336 128.118 28.8336 127.967 28.7582 127.891C28.3808 126.906 28.0788 126.072 28.5317 125.163C28.8336 124.557 29.5885 124.027 30.7961 123.421C30.8716 122.89 30.9471 122.436 30.9471 122.208C29.4375 121.375 17.738 117.89 11.3221 115.92C6.71778 114.556 4.3024 113.799 3.92499 113.647C3.84951 113.647 3.69855 113.723 3.39663 114.102C2.03797 116.072 1.43413 118.42 1.66057 120.769C1.73605 121.072 1.81153 121.527 2.03797 121.602C2.41538 121.83 3.32115 121.299 4.07595 120.92C4.98172 120.39 5.73653 120.011 6.34038 120.314C6.71778 120.542 6.86874 120.92 6.86874 121.375C7.0197 122.284 7.0197 123.193 6.86874 124.103ZM143.262 119.784C139.866 120.617 135.412 121.754 130.733 123.042C119.26 126.148 111.862 128.648 111.032 129.709C111.485 129.558 112.013 129.33 112.617 129.179C114.051 128.724 116.316 128.118 118.958 127.285C124.468 125.694 131.94 123.496 138.205 121.527C140.092 120.845 141.753 120.314 143.262 119.784ZM2.11345 123.951C1.50961 124.178 0.528358 126.83 0.981243 128.345C1.20768 129.027 1.66057 129.255 2.41538 129.103C3.84951 128.8 4.83076 127.739 5.43461 126.072C5.58557 125.618 5.73653 125.239 5.81201 124.784C3.92499 124.254 2.49086 123.875 2.11345 123.951ZM30.7207 124.481C30.1923 124.709 29.7394 125.088 29.4375 125.542C29.1356 126.072 29.362 126.603 29.6639 127.588C29.7394 127.739 29.7394 127.815 29.8149 127.967C30.1923 127.057 30.4187 126.148 30.5697 125.163C30.6452 124.936 30.7207 124.709 30.7207 124.481ZM35.476 125.769C35.7024 125.921 37.0611 126.148 43.8543 125.466C49.3644 124.86 56.0067 123.951 60.6111 123.269C72.537 121.527 82.5005 119.632 84.9159 118.951C84.8404 118.799 84.7649 118.647 84.7649 118.496C84.6139 117.738 85.0668 116.678 85.6707 115.844C85.6707 115.617 85.6707 115.39 85.6707 115.162C77.6697 116.223 71.4803 116.981 66.4231 117.587C48.6851 119.784 46.4207 120.087 36.4572 122.587C35.9288 122.739 35.4005 122.815 34.9476 122.966C34.9476 123.193 35.0231 123.421 35.0231 123.648C35.0231 124.406 35.174 125.088 35.476 125.769ZM86.5764 115.996C87.1048 118.572 90.7279 121.375 95.1812 122.815C96.8418 121.981 98.6534 121.299 100.465 120.769C96.9173 119.86 91.6336 117.966 91.6336 115.087C91.6336 114.026 92.0111 113.041 92.7659 112.359C94.351 110.844 97.2192 110.541 99.8611 110.541C99.8611 110.162 99.7856 109.783 99.8611 109.48C95.1812 110.086 91.1053 111.223 88.6144 112.662C87.9351 112.965 87.4067 113.496 86.9538 114.102L87.2558 114.026C87.4822 114.026 87.7086 114.177 87.7086 114.405C87.7086 114.556 87.7086 114.632 87.6332 114.784C87.2558 115.162 86.9538 115.617 86.5764 115.996ZM34.4947 121.527C34.6457 121.678 34.7211 121.905 34.7966 122.133C35.2495 121.981 35.7779 121.905 36.2308 121.754C40.8351 120.542 45.5904 119.557 50.3457 118.799C45.062 119.178 40.0048 119.405 38.0423 118.799C36.3062 119.329 35.4005 119.708 35.174 120.011C34.8721 120.466 34.6457 120.996 34.4947 121.527ZM104.692 120.769C104.918 120.845 105.145 120.845 105.371 120.845C108.617 121.299 110.655 121.299 111.259 121.072C110.428 120.39 107.937 120.314 104.692 120.769ZM6.34038 111.147C6.49134 111.374 7.54807 112.056 12.6808 113.874C16.2284 115.087 20.6817 116.45 24.5312 117.663C28.9846 119.026 32.4567 120.087 33.287 120.542C33.438 120.617 33.5889 120.693 33.7399 120.769C33.8909 120.314 34.1173 119.86 34.4192 119.405C34.5702 119.254 34.7966 118.799 36.8346 118.193C36.2308 117.814 35.7779 117.132 35.6269 116.375C35.6269 116.147 35.5514 115.996 35.6269 115.768C35.0986 115.693 34.5702 115.541 34.1173 115.314C33.5135 115.011 33.438 114.632 33.438 114.329C33.6644 112.283 35.174 110.465 36.6082 109.025C33.6644 108.343 29.4375 107.359 25.0596 106.374C10.7937 103.267 8.75576 103.495 8.45384 103.646C6.79326 104.555 6.49134 108.874 6.34038 110.692C6.41586 110.92 6.41586 111.071 6.34038 111.147ZM40.0803 118.269C43.9298 118.496 52.0062 117.966 62.8 116.678C72.7635 115.465 81.7457 114.026 84.463 113.344C82.5005 112.359 79.7832 110.086 79.6322 108.268C79.5567 107.51 80.0851 106.752 80.7644 106.525C81.2173 106.298 81.7457 106.146 82.274 105.995C76.6885 106.298 60.3091 108.268 50.9495 109.404C48.9115 109.632 47.1755 109.859 46.0433 110.01C45.4394 110.086 44.9865 110.162 44.6091 110.162C44.4582 110.162 44.3072 110.162 44.2317 110.238C43.7788 110.238 43.6279 110.086 43.6279 109.859C43.5524 109.404 44.0053 109.328 44.2317 109.328C47.4019 108.798 75.7072 104.631 83.4062 103.495C82.8024 103.267 82.274 102.813 81.8966 102.282C81.5947 101.828 81.5192 101.222 81.7457 100.767L82.1986 99.2517C77.6697 99.7063 52.3082 102.207 43.5524 102.207C42.7976 102.207 42.1937 102.207 41.7409 102.131C41.5899 102.661 41.4389 103.192 41.4389 103.798C41.3635 104.176 41.3635 104.631 41.288 105.086C41.0615 106.601 41.5144 106.98 42.2692 107.662C42.5711 107.889 42.8731 108.192 43.0995 108.495C43.2505 108.647 43.2505 108.95 43.0995 109.177C42.8731 109.404 42.7221 109.632 38.4952 108.722C39.7029 109.025 40.4577 109.177 40.4577 109.177C40.6841 109.253 40.8351 109.48 40.7596 109.707C40.7596 109.783 40.6841 109.859 40.6086 109.935C39.5519 110.844 37.1365 113.192 36.4572 115.162C37.9668 115.314 39.5519 115.39 41.0615 115.39C43.8543 115.39 47.3264 115.314 51.4024 115.087C52.1572 114.935 52.912 114.859 53.7423 114.708C62.1961 113.344 73.2163 111.98 77.2923 112.208C77.8961 112.208 78.349 112.283 78.4245 112.662C78.5 112.814 78.4245 113.041 78.2735 113.192C78.1226 113.344 77.7452 113.647 71.3293 114.329C67.2534 114.784 62.1207 115.238 57.2899 115.617C55.5538 115.768 53.5159 115.844 51.4024 115.996C46.6471 116.829 42.7976 117.587 40.0803 118.269ZM36.4572 115.996C36.4572 116.147 36.4572 116.223 36.4572 116.375C36.5327 117.056 37.0611 117.587 37.9668 117.966C38.7971 117.738 39.7784 117.435 40.986 117.208C42.2692 116.905 43.7788 116.602 45.3639 116.299C42.4202 116.299 39.4764 116.223 36.4572 115.996ZM34.3437 114.556C34.4192 114.632 34.6457 114.859 35.7779 115.011C36.3817 112.965 38.4952 110.844 39.5519 109.783C39.099 109.707 38.4197 109.48 37.6649 109.328C36.1553 110.768 34.5702 112.586 34.3437 114.556ZM111.485 109.48C111.636 110.313 111.862 111.147 112.24 111.98C113.07 113.496 114.957 114.48 117.448 114.632C119.637 114.784 121.675 114.102 122.43 113.041C122.656 112.738 122.581 112.586 122.505 112.511C122.052 111.45 117.901 110.692 114.882 110.086C113.674 109.935 112.542 109.783 111.485 109.48ZM74.1221 113.117C71.1784 113.268 67.0269 113.723 62.4226 114.329C67.1779 113.95 71.3293 113.496 74.1221 113.117ZM100.918 111.45C100.993 111.526 100.993 111.601 101.144 111.677C101.22 111.601 101.295 111.526 101.295 111.45H100.918ZM102.503 110.616C103.182 110.616 103.711 110.616 104.163 110.616C104.616 110.465 104.994 110.238 105.22 109.783C105.371 109.556 105.522 109.328 105.673 109.025C104.767 109.025 103.786 109.101 102.729 109.177C102.654 109.707 102.578 110.162 102.503 110.616ZM100.767 110.541C101.069 110.541 101.371 110.541 101.597 110.541C101.673 110.238 101.748 109.783 101.824 109.253C101.446 109.253 101.069 109.328 100.691 109.404C100.691 109.783 100.691 110.162 100.767 110.541ZM86.4255 91.5237C86.199 91.5237 86.0481 91.6753 85.9726 91.8268C85.8216 92.2814 86.1236 93.1906 87.5577 94.0997C89.6711 95.4635 96.1625 96.0696 99.3327 96.2969C100.163 96.3727 100.842 96.4484 101.22 96.4484C101.446 96.4484 101.597 96.6 101.748 96.7515C102.276 97.5092 102.05 99.6306 101.446 103.343C101.144 105.086 100.918 106.828 100.767 108.343C101.144 108.268 101.597 108.268 101.975 108.192C101.975 108.04 102.05 107.813 102.05 107.586C102.276 105.389 102.427 102.737 102.503 100.54C102.654 97.1303 102.729 96.6 102.88 96.3727C103.031 96.2212 103.258 96.0696 104.616 95.9939C105.522 95.9939 106.352 95.9939 107.258 96.0696C107.862 96.1454 108.541 96.2212 109.145 96.2969C109.145 95.9181 109.145 95.615 109.145 95.2362C108.994 94.6301 108.541 94.0997 108.013 93.7209C106.201 93.7967 104.39 93.7967 102.503 93.7209C98.5024 93.5694 94.5774 93.039 90.6524 92.2056C90.5769 92.4329 90.3505 92.5844 90.1995 92.6602C89.8976 92.8117 89.5202 92.8117 89.2183 92.6602C88.9163 92.5087 88.6899 92.2814 88.6144 91.9783C88.6144 91.9026 88.5389 91.751 88.5389 91.6753C88.0861 91.5995 87.7841 91.5237 87.4822 91.448C86.9538 91.6753 86.5764 91.5237 86.4255 91.5237ZM107.107 108.192C108.239 108.192 109.372 108.268 110.504 108.419C110.277 105.919 110.126 103.419 110.202 100.919C110.277 99.8578 110.202 98.7971 110.126 97.7364C110.051 97.7364 110.051 97.6607 109.975 97.6607C109.749 99.3275 109.447 100.994 109.07 102.585C108.466 104.479 107.862 106.374 107.107 108.192ZM39.3255 107.889C40.4577 108.116 41.3635 108.268 41.9673 108.343L41.8918 108.268C41.0615 107.51 40.3067 106.828 40.6086 104.934C40.6841 104.479 40.6841 104.101 40.7596 103.722C40.8351 103.191 40.9106 102.585 41.0615 102.055C36.3062 101.146 10.8692 96.2212 5.51009 95.1604C5.43461 95.8423 5.66105 96.5242 6.03845 97.1303C6.18942 97.2819 7.09519 97.7364 12.3034 99.1002C15.851 100.009 20.3043 101.07 24.6822 102.131C38.8726 105.464 40.3067 105.995 40.5332 106.601C40.6087 106.752 40.5332 106.98 40.4577 107.056C40.0048 107.359 39.7029 107.662 39.3255 107.889ZM103.56 97.2061C103.484 97.6607 103.409 99.2517 103.333 100.767C103.182 103.873 103.031 106.374 102.805 108.268C103.937 108.192 105.069 108.116 106.05 108.116C107.485 105.161 108.617 100.237 108.919 97.3576C108.164 97.2061 107.409 97.1303 106.73 97.1303C105.749 97.0546 104.616 97.0546 103.56 97.2061ZM4.52884 95.0089C4.00047 95.5393 3.69855 96.2969 3.69855 96.9788C3.84951 97.7365 4.3024 98.4183 4.98172 98.7971C6.2649 99.6306 13.813 101.903 24.3048 104.479C30.1168 105.919 34.9476 106.98 38.1933 107.662C38.3442 107.51 38.4952 107.359 38.6461 107.283C38.8726 107.056 39.099 106.904 39.25 106.752C37.5139 106.071 30.2678 104.328 24.3048 102.888C19.9269 101.828 15.3226 100.767 11.775 99.8579C6.18942 98.4183 5.43461 97.888 5.20817 97.5849C4.75528 96.903 4.45336 95.9939 4.52884 95.0089ZM5.51009 94.2513C10.8692 95.312 37.1365 100.464 41.3635 101.222H41.4389C41.8163 100.843 42.2692 100.54 42.8731 100.388C44.5336 99.8579 71.2538 97.4334 79.4812 96.6757C71.8577 94.4786 47.4774 87.584 43.5524 87.584C43.4769 87.584 43.4769 87.584 43.4014 87.584C39.099 87.8113 8.37836 91.6753 6.79326 92.2056C6.18942 92.5087 5.73653 93.1148 5.58557 93.8725C5.58557 94.024 5.51009 94.0997 5.51009 94.2513ZM111.561 93.7209C111.334 94.1755 111.259 94.7059 111.259 95.1604C111.259 95.615 111.561 95.9939 112.013 95.9939C113.297 96.2969 116.014 96.6757 120.392 95.5393C125.223 94.327 130.506 91.5995 136.167 87.584C142.885 82.8108 148.018 77.1284 151.414 70.7642C154.962 64.1727 156.547 56.672 155.943 49.247C155.566 42.5797 154.207 36.064 151.943 29.7755C149.527 23.487 146.131 17.5774 141.753 12.4254C138.13 7.95527 133.375 4.54586 128.015 2.50022C125.826 1.6668 123.562 1.13645 121.222 0.909156L119.184 2.9548L122.128 4.16704C122.354 4.2428 122.43 4.54586 122.354 4.77316C122.354 4.84892 122.279 4.84892 122.279 4.84892C121.6 5.60657 121.071 6.43998 120.618 7.27339C121.222 7.72798 121.901 7.95527 122.656 8.1068C122.656 8.1068 122.656 8.1068 122.732 8.1068C123.109 7.87951 123.411 6.66727 123.487 5.90963C123.487 5.68233 123.713 5.5308 123.939 5.5308C123.939 5.5308 123.939 5.5308 124.015 5.5308C124.09 5.5308 125.675 5.90963 131.412 9.31904C134.507 11.0616 139.488 17.5016 143.866 25.1539C148.924 34.0941 152.018 42.7313 152.32 48.944C152.622 55.9143 150.131 63.7939 145.376 71.2188C140.319 78.9468 133.45 85.2353 125.374 89.5539C121.071 91.751 116.391 93.1906 111.561 93.7209ZM90.8788 91.5995C96.0115 92.736 101.295 93.1906 106.579 93.1148C104.239 91.9783 101.748 91.0692 99.2572 90.3115C95.5586 90.0842 92.3885 89.7812 91.7091 89.7054C91.3317 89.6296 91.1808 89.9327 90.9543 91.1449C90.8788 91.2964 90.8788 91.448 90.8788 91.5995ZM102.427 90.5388C105.069 91.5237 106.956 92.2814 108.088 93.1148C109.07 93.039 109.975 92.9633 110.881 92.8875C111.108 92.2814 111.485 91.751 111.787 91.2207C111.862 91.0692 112.013 90.9176 112.089 90.7661C110.579 90.8419 107.937 90.8419 102.88 90.5388H102.427ZM113.372 90.6146C112.844 91.2964 112.315 91.9783 111.938 92.736C116.467 92.2056 120.845 90.8419 124.845 88.7962C132.771 84.5534 139.564 78.3407 144.47 70.7642C149.15 63.5666 151.565 55.8386 151.263 49.0197C150.962 42.9586 147.942 34.3972 142.961 25.6084C138.734 18.1077 133.752 11.7435 130.808 10.0767C128.619 8.78869 126.43 7.57645 124.09 6.59151C124.015 7.34916 123.713 8.03104 123.336 8.63716C127.336 10.304 131.035 12.7284 134.054 15.8348C142.81 24.3962 147.414 33.9426 148.999 46.671C149.225 48.6409 149.301 50.6108 149.15 52.5807C149.829 56.2174 149.829 58.3388 148.924 59.0965C148.697 59.3237 148.32 59.3995 148.018 59.3995C147.414 61.5967 146.659 63.7181 145.753 65.7637C143.413 71.0673 140.017 75.992 136.469 79.2499C133.827 81.6743 129.6 84.2503 124.77 86.3717C121.75 87.6597 118.203 88.872 116.24 88.872C115.938 88.872 115.637 88.872 115.335 88.7205C114.957 88.6447 114.731 88.3416 114.655 87.9628C114.504 86.599 116.316 85.008 118.429 83.1896C120.165 81.7501 122.052 80.0833 122.052 79.0983C122.052 78.7953 122.052 78.4165 122.052 78.1134C120.92 79.4772 118.58 80.9924 114.806 83.2654C114.051 83.72 113.372 84.1746 112.617 84.5534C109.221 86.6748 105.975 88.6447 102.427 88.6447C100.842 88.6447 99.2572 88.2659 97.8986 87.5082C97.2947 87.2052 96.8418 86.9779 96.3135 86.6748C91.7091 84.3261 90.8788 83.8715 88.0106 83.8715C87.7086 83.8715 87.3312 83.8715 87.0293 83.8715C84.0101 83.9473 80.538 84.023 75.6317 78.3407C73.9711 76.3708 72.3106 74.7797 71.0274 73.4917L70.801 73.2645C74.4995 79.1741 79.4058 83.0381 85.4442 85.008L88.6899 85.9929C92.9168 87.3567 96.4644 88.4174 99.2572 89.4023C100.389 89.4781 101.522 89.5539 102.654 89.6296C109.372 90.0085 111.862 89.8569 112.844 89.7812C113.07 89.5539 113.297 89.4023 113.599 89.3266C113.9 89.3266 114.127 89.6296 114.127 89.9327C114.127 90.0842 114.051 90.2357 113.976 90.3115C113.9 90.5388 113.674 90.6146 113.372 90.6146ZM89.3692 91.2964C89.5957 91.3722 89.7466 91.3722 89.9731 91.448C89.9731 91.2964 90.0486 91.1449 90.0486 90.9934C90.1995 90.0842 90.5014 88.7205 91.7846 88.872C92.2375 88.9477 93.7471 89.0993 95.7851 89.2508C94.4264 88.7962 92.9168 88.3416 91.3317 87.8113C91.1808 88.1901 91.0298 88.4932 90.7279 88.872C90.1995 89.6296 89.7466 90.463 89.3692 91.2964ZM122.958 76.7496C123.034 77.583 123.109 78.3407 123.034 79.1741C123.034 80.5379 121.147 82.2047 119.109 83.9473C117.524 85.311 115.486 87.0536 115.637 87.9628C115.637 87.9628 115.787 88.0386 116.014 88.1143C119.109 88.4174 130.733 83.5685 135.941 78.7195C139.413 75.5374 142.734 70.6884 144.999 65.5365C145.904 63.5666 146.584 61.4452 147.188 59.3237H147.112C144.168 58.1115 143.942 57.5812 143.036 55.1567C142.734 54.399 142.357 53.4141 141.828 52.0503C141.225 50.6108 140.319 49.247 139.187 48.1106C137.903 46.671 136.847 45.5346 137.375 41.8221C137.903 38.2612 137.752 36.064 137.526 35.2306C137.45 35.4579 137.3 35.7609 137.224 36.064C136.998 36.9732 136.394 37.7308 135.639 38.1854C134.809 38.7157 134.28 39.0946 136.545 44.6254C139.111 50.8381 139.262 52.5807 139.337 54.0202C139.337 54.7021 139.488 55.384 139.715 56.0659C139.941 56.975 140.319 57.8085 140.847 58.5661C140.998 58.5661 141.225 58.5661 141.375 58.5661C141.677 58.6419 141.828 58.9449 141.753 59.248C141.677 59.551 141.451 59.7026 141.149 59.7026C140.923 59.7026 140.696 59.6268 140.545 59.4753C139.488 59.8541 138.583 60.6875 138.205 61.7482C137.526 63.415 136.545 63.6423 135.186 64.0212C133.827 64.4 132.469 64.9303 131.261 65.6122C128.091 67.3548 127.789 67.9609 126.808 69.6277C126.506 70.0823 126.204 70.6127 125.826 71.2946C125.298 72.128 124.694 72.8856 124.09 73.6433C123.336 74.6282 123.034 74.9313 123.109 75.992C123.034 76.2193 123.034 76.4466 122.958 76.7496ZM88.086 83.0381C91.1808 83.0381 92.162 83.5685 96.8418 85.9172C97.2947 86.1444 97.8231 86.4475 98.4269 86.7506C103.484 89.3266 107.56 86.7506 112.315 83.8715C112.995 83.4169 113.75 82.9623 114.504 82.5835C119.109 79.856 121.524 78.2649 122.052 76.7496C122.052 76.4466 121.826 76.1435 121.6 75.9162C121.298 75.7647 120.618 75.9162 119.713 76.5223C118.958 77.0527 118.354 77.583 117.75 78.2649C116.467 79.7045 115.561 80.4621 111.485 80.0075C107.787 79.5529 107.409 79.2499 106.956 78.3407C106.73 77.8103 106.352 77.3557 105.824 77.0527C105.069 76.5981 104.163 76.2193 103.333 76.0677C102.276 75.7647 101.371 75.5374 101.069 74.7797C100.842 74.0979 101.22 73.1887 102.276 71.8249C103.182 70.6885 104.239 69.6277 105.447 68.7186C106.881 67.5821 107.485 67.0517 107.334 64.4757C107.258 63.112 106.956 61.824 106.277 60.6117C105.749 59.3995 105.296 58.4903 106.277 56.5962C106.805 55.687 107.334 54.8536 108.013 54.0202C108.919 52.8837 109.523 52.2019 109.221 50.7623C109.145 50.232 109.145 49.7774 109.221 49.247V49.1713C108.692 48.944 108.239 48.7167 107.711 48.5652C107.032 48.3379 106.05 47.959 104.767 47.4287C99.7856 45.4588 99.6346 44.5496 99.7101 43.1101C99.7856 42.7313 99.7101 42.4282 99.6346 42.0494C99.5591 41.7463 98.4269 42.0494 97.8231 42.2009C96.8418 42.504 95.9361 42.7313 95.5586 42.1252C95.1812 41.5948 95.4077 40.7614 97.3702 37.9581C100.691 33.3364 100.842 31.8969 100.918 30.9877C100.918 30.3816 101.144 29.6997 101.522 29.2452C102.88 27.2753 106.201 27.5026 108.617 27.6541H108.994C109.598 27.6541 110.202 27.351 110.579 26.8965C111.636 25.9873 112.617 25.4569 114.655 27.1237C115.712 27.8814 116.618 28.9421 117.222 30.0786C117.675 30.9877 118.429 31.7454 119.26 32.2C120.316 32.8819 121.298 32.8061 122.354 32.6546C123.788 32.4273 125.449 32.2 127.034 34.7002C127.864 35.9882 128.77 37.2005 129.827 38.3369C130.28 38.943 130.884 39.3976 131.487 39.7765C131.412 39.4734 131.337 39.2461 131.261 38.943C130.959 38.1854 130.733 37.352 130.506 36.5943C130.053 34.9275 129.902 34.3972 127.412 32.8061C126.204 32.1242 125.298 30.9877 124.845 29.6997C124.468 28.7906 124.317 28.4117 122.656 28.4117C121.75 28.336 120.845 28.5633 120.09 28.9421C119.033 29.3967 118.58 29.3209 117.448 27.8056C116.769 27.048 116.089 26.3661 115.259 25.76C113.976 24.6993 113.07 23.9416 113.297 23.184C113.523 22.5779 114.202 22.3506 115.863 22.2748C118.127 22.199 120.392 22.3506 122.581 22.6536C123.637 22.8052 124.77 22.8809 125.902 22.8809C125.223 21.5929 124.77 20.3807 125.223 19.6988C125.525 19.32 125.977 19.1684 126.732 19.2442C127.412 19.3957 128.091 19.2442 128.695 18.9412C129.525 18.5623 130.506 18.4108 131.412 18.4866C131.865 18.4866 132.242 18.4866 132.695 18.4108C133.903 18.1835 134.28 18.335 136.998 21.4414C140.621 25.5327 144.017 29.3967 146.357 40.6856C146.735 42.3525 147.037 44.0193 147.414 45.5346C147.64 46.5195 147.791 47.3529 148.018 48.1863C148.018 47.656 147.942 47.2014 147.867 46.671C146.357 34.1699 141.828 24.775 133.224 16.3652C125.147 8.48563 116.769 6.66727 104.163 6.06116C92.5394 5.5308 83.0288 12.1223 77.8961 15.6075C77.5942 15.759 77.3678 15.9863 77.1413 16.1379C74.8014 17.7289 70.499 23.1082 67.1779 29.927C61.9697 40.5341 61.6678 48.5652 62.4226 53.4899C63.0264 58.1115 64.3851 62.5816 66.4231 66.7487C64.9135 62.7332 63.8567 58.4903 63.4038 54.2475C62.8755 48.944 63.2529 48.1106 63.7812 47.0499C64.0832 46.5195 64.2341 45.9892 64.3851 45.4588C64.6115 44.4739 64.9889 43.9435 65.5173 43.8677C65.5173 43.2616 65.5173 42.6555 65.5928 41.8979C65.8192 38.64 66.4231 35.3821 67.4043 32.2757C67.4798 31.8969 67.6308 31.5939 67.7817 31.215C67.7817 31.1393 67.7817 31.0635 67.7817 30.9877C67.8572 30.3816 68.0836 29.8513 68.461 29.3967C71.6312 22.0475 77.5187 16.8197 80.0851 14.7741C83.1798 12.2739 87.2558 10.607 92.5394 9.6221C94.049 9.31904 94.9548 9.47057 95.3322 10.0767C95.7096 10.607 95.4832 11.4405 94.6529 12.5769C94.5019 12.8042 93.9735 13.5619 90.5769 13.4103C89.2937 13.3346 88.0106 13.183 86.7274 12.9557C86.7274 12.9557 86.35 12.9557 85.4442 14.3953C84.9913 15.1529 84.5385 15.9106 84.2365 16.744C84.0101 17.3501 82.9534 17.7289 81.5192 18.2593C80.0096 18.7896 78.1226 19.4715 76.7639 20.608C75.2543 21.8202 72.6125 25.8357 70.8764 28.5633L70.5745 29.0179C70.801 29.0179 70.9519 29.0936 71.1029 29.2452C71.5558 29.624 71.6312 30.4574 71.7822 32.8061C71.8577 33.9426 72.0086 35.5336 72.1596 37.5793C72.386 39.6249 72.6125 40.6856 72.9899 40.9129C73.1409 40.9887 73.5937 40.8372 74.0466 40.6099C75.4053 39.8522 76.9904 39.7007 78.4245 40.1553C80.0851 40.7614 80.8399 41.0644 80.9154 41.6706C80.9909 42.2009 80.538 42.504 79.8587 42.9586C78.8774 43.5647 78.0471 44.3223 77.3678 45.1557C76.0846 46.8226 76.462 47.2772 77.2923 48.2621C78.0471 49.0955 78.651 50.1562 78.9529 51.2927C79.6322 54.1717 77.9716 55.1567 75.8582 56.3689C75.0279 56.8235 74.1976 57.3539 73.4428 57.8842C70.8764 59.7783 70.9519 60.0814 71.1784 61.5209C71.2538 61.7482 71.2538 62.0513 71.3293 62.3543C71.5558 64.4 70.9519 65.0819 69.4423 66.6729C69.2159 66.9002 68.9139 67.2033 68.612 67.5821C68.3856 67.8094 68.2346 68.1124 68.1591 68.4155C68.4611 69.0216 68.763 69.7035 69.0649 70.3096C69.6687 70.9915 70.499 71.8249 71.6312 72.9614C72.9144 74.2494 74.575 75.8404 76.3111 77.8103C80.9154 83.1896 84.0101 83.1139 87.0293 83.0381C87.4067 83.0381 87.7841 83.0381 88.086 83.0381ZM82.8024 85.008C86.2745 86.9779 89.4447 87.8113 90.3505 87.5082L88.5389 86.9779L85.2933 85.9929C84.463 85.6141 83.6327 85.311 82.8024 85.008ZM99.4837 41.0644C100.012 40.9887 100.465 41.2917 100.616 41.8221C100.767 42.2767 100.767 42.7313 100.767 43.1859C100.691 44.095 100.691 44.7769 105.296 46.671C106.579 47.2014 107.485 47.5044 108.239 47.8075C110.202 48.5652 110.504 48.6409 110.277 49.5501C110.202 49.9289 110.202 50.3077 110.277 50.7623C110.579 52.5807 109.825 53.4899 108.919 54.7021C108.315 55.4597 107.711 56.2932 107.258 57.1266C106.503 58.5661 106.73 59.248 107.258 60.3087C107.938 61.5967 108.315 63.0362 108.39 64.4757C108.541 67.5063 107.636 68.264 106.126 69.4762C104.994 70.3096 104.012 71.2946 103.107 72.431C102.05 73.7948 101.975 74.4009 102.05 74.5525C102.201 74.8555 102.88 75.0828 103.711 75.2343C104.692 75.4616 105.673 75.8405 106.503 76.3708C107.107 76.7496 107.636 77.3557 107.937 78.0376C108.164 78.568 108.315 78.7953 111.787 79.2499C115.637 79.7044 116.24 78.9468 117.297 77.8103C117.901 77.0527 118.58 76.4466 119.411 75.9162C120.618 75.1586 121.524 74.9313 122.128 75.2343C122.203 75.2343 122.203 75.3101 122.279 75.3101C122.354 74.4009 122.807 73.9463 123.487 73.1129C124.09 72.431 124.619 71.6734 125.147 70.84C125.6 70.1581 125.902 69.7035 126.128 69.1732C127.11 67.5063 127.562 66.7487 130.884 64.8546C132.167 64.0969 133.601 63.5666 135.035 63.1877C136.318 62.8089 136.922 62.6574 137.45 61.4452C137.903 60.2329 138.809 59.3237 140.017 58.7934C139.187 57.3539 138.734 55.7628 138.583 54.096C138.507 52.7322 138.356 51.0654 135.865 45.0042C134.733 42.2009 134.205 40.4583 134.129 39.3976C134.054 38.5642 134.507 37.8823 135.262 37.5035C135.865 37.2005 136.318 36.5943 136.469 35.8367C136.696 34.9275 137.073 34.0183 137.752 34.1699C138.13 34.2456 138.583 34.6245 138.658 36.7459C138.734 38.4884 138.583 40.231 138.356 41.9736C137.903 45.3073 138.658 46.1407 139.941 47.5802C141.149 48.7924 142.055 50.1562 142.734 51.7473C143.338 53.111 143.715 54.096 144.017 54.8536C144.848 57.1266 144.999 57.4296 147.565 58.4903C148.018 56.5962 148.32 54.7021 148.471 52.7322C148.093 50.7623 147.64 48.4894 147.037 45.9134C146.659 44.3223 146.357 42.7313 145.98 41.0644C143.64 30.0028 140.319 26.2146 136.771 22.199C134.129 19.2442 133.978 19.2442 133.224 19.3957C132.771 19.4715 132.242 19.5473 131.714 19.5473C130.884 19.4715 130.053 19.623 129.299 19.9261C128.544 20.3049 127.713 20.3807 126.883 20.2292C126.506 20.1534 126.279 20.2292 126.204 20.3049C126.128 20.4564 126.053 20.9868 126.959 22.7294C127.11 22.9567 127.11 23.2597 126.959 23.487C126.581 24.0932 125.449 23.9416 122.732 23.6386C120.543 23.3355 118.354 23.184 116.165 23.2597C114.731 23.3355 114.429 23.5628 114.429 23.6386C114.504 23.9416 115.486 24.775 116.089 25.2296C116.92 25.8357 117.675 26.5934 118.429 27.4268C118.731 27.8056 119.033 28.1845 119.486 28.4117C119.637 28.4875 119.713 28.4117 120.09 28.2602C120.996 27.8056 122.052 27.5783 123.034 27.6541C125.147 27.6541 125.525 28.336 126.053 29.4725C126.43 30.6089 127.261 31.5181 128.317 32.1242C131.11 33.9426 131.337 34.7002 131.789 36.4428C132.016 37.2005 132.242 37.9581 132.469 38.7157C132.62 39.2461 133.073 40.3826 132.393 40.7614C132.016 40.9129 131.412 40.9129 129.751 39.2461C128.619 38.0339 127.562 36.7459 126.657 35.3063C125.374 33.3364 124.241 33.488 122.807 33.6395C121.675 33.791 120.467 33.9426 119.109 33.1092C118.127 32.503 117.297 31.6696 116.769 30.6847C116.165 29.624 115.41 28.7148 114.429 27.9572C112.693 26.5934 112.24 27.048 111.41 27.7299C110.806 28.336 110.051 28.7148 109.221 28.7148H108.768C106.654 28.5633 103.56 28.4117 102.427 29.927C102.125 30.3059 101.975 30.7605 101.975 31.215C101.899 32.2757 101.824 33.8668 98.276 38.64C96.6909 40.8372 96.4644 41.5948 96.4644 41.7463C96.9173 41.7463 97.3702 41.5948 97.7476 41.519C98.3514 41.216 98.8798 41.0644 99.4837 41.0644ZM65.9702 45.0042C65.8192 45.2315 65.6683 45.5346 65.5928 45.8376C65.4418 46.4437 65.2154 47.0499 64.9135 47.5802C64.4606 48.5652 64.0832 49.247 64.6115 54.2475C65.0644 58.7176 66.1966 63.112 67.8572 67.279C67.9327 67.2033 68.0082 67.0517 68.0836 66.976C68.3856 66.6729 68.6875 66.3699 68.9139 66.0668C70.3481 64.5515 70.801 64.0969 70.5745 62.5059C70.5745 62.2028 70.499 61.9755 70.4236 61.7482C70.1216 60.0814 70.1971 59.3995 73.0654 57.2781C73.8957 56.672 74.726 56.1416 75.5562 55.687C77.5942 54.5506 78.7264 53.8687 78.1981 51.5957C77.9716 50.6108 77.4433 49.6259 76.7639 48.8682C75.8582 47.8075 75.1788 46.8983 76.8394 44.7012C77.5942 43.792 78.5 42.9586 79.5567 42.2767C79.7832 42.1252 80.0096 41.9736 80.2361 41.8221C79.6322 41.519 79.0284 41.216 78.4245 41.0644C76.7639 40.4583 75.6317 41.0644 74.726 41.4433C74.0466 41.7463 73.4428 42.0494 72.9144 41.7463C72.2351 41.3675 71.9332 40.3068 71.7067 37.7308C71.4803 35.6852 71.4048 34.0941 71.3293 32.9576C71.1784 31.2908 71.1029 30.1543 70.9519 29.927C70.9519 29.927 70.8764 29.927 70.7255 29.927C70.65 29.927 70.499 29.927 70.4236 29.927C70.1971 30.2301 70.0461 30.5332 69.8197 30.7605C69.5933 31.0635 69.3668 31.3666 69.1404 31.6696C69.0649 31.9727 68.9139 32.2757 68.8384 32.5788C67.9327 35.5336 67.3288 38.5642 67.1024 41.6706C67.0269 42.6555 67.0269 43.4889 67.0269 44.1708C67.1779 44.3223 67.3288 44.4739 67.4043 44.6254C67.7817 45.2315 67.8572 45.9892 67.4798 46.5953C67.3288 46.8226 67.0269 46.9741 66.725 46.8226C66.4231 46.671 66.2721 46.368 66.1966 45.1557C65.9702 45.1557 65.9702 45.08 65.9702 45.0042ZM148.773 55.9901C148.622 56.8235 148.471 57.6569 148.244 58.4903C148.32 58.4903 148.32 58.4146 148.395 58.4146C148.697 58.263 148.924 57.6569 148.773 55.9901ZM86.1236 12.6527C84.312 13.4103 82.576 14.3953 81.0663 15.6075C77.0659 18.7896 73.6692 22.7294 71.0274 27.1237C72.8389 24.3962 75.0279 21.1383 76.462 20.0019C77.9716 18.7896 79.9341 18.1077 81.5192 17.5774C82.425 17.2743 83.6327 16.8197 83.7836 16.5167C84.161 15.6075 84.6139 14.7741 85.1423 13.9407C85.3687 13.4861 85.7461 13.0315 86.1236 12.6527ZM87.2558 12.1981C88.5389 12.4254 89.7466 12.5769 91.0298 12.6527C93.8226 12.7285 94.351 12.2739 94.4264 12.1981C95.1058 11.2889 95.1058 10.8343 95.0303 10.6828C95.0303 10.607 94.7284 10.304 93.1433 10.607C91.1053 10.9859 89.1428 11.5162 87.2558 12.1981Z" fill="#171717"/>
</g>
</svg>
